<svg xmlns="http://www.w3.org/2000/svg" viewBox="0 0 960 540" width="960" height="540" role="img">
    <rect width="960" height="540" fill="#f4f2ee"/>
    <path d="M-0.1,-0.4 L958.9,1.1 L958.5,320.0 L1.2,298.7 Z" fill="#6b7280" opacity="0.10"/>
    <path d="M120.3,56.9 Q540.0,50.3 959.7,42.5" fill="none" stroke="#14161a" stroke-width="1.57" stroke-linecap="round" opacity="0.51"/>
    <path d="M119.4,57.1 Q540.0,47.9 960.0,43.0" fill="none" stroke="#14161a" stroke-width="1.66" stroke-linecap="round" opacity="0.52"/>
    <path d="M120.6,95.0 Q540.0,87.3 959.5,80.4" fill="none" stroke="#14161a" stroke-width="1.74" stroke-linecap="round" opacity="0.46"/>
    <path d="M119.4,95.3 Q540.0,85.5 959.5,80.7" fill="none" stroke="#14161a" stroke-width="1.41" stroke-linecap="round" opacity="0.53"/>
    <path d="M118.9,133.7 Q540.0,128.3 960.0,116.9" fill="none" stroke="#14161a" stroke-width="1.55" stroke-linecap="round" opacity="0.54"/>
    <path d="M120.2,133.1 Q540.0,123.7 960.2,118.9" fill="none" stroke="#14161a" stroke-width="1.41" stroke-linecap="round" opacity="0.40"/>
    <path d="M150.1,29.0 Q152.1,165.0 149.2,300.0" fill="none" stroke="#14161a" stroke-width="1.75" stroke-linecap="round" opacity="0.34"/>
    <path d="M150.3,29.2 Q150.5,165.0 150.2,299.3" fill="none" stroke="#14161a" stroke-width="1.57" stroke-linecap="round" opacity="0.40"/>
    <path d="M0.1,250.3 Q259.9,238.3 519.2,231.4" fill="none" stroke="#14161a" stroke-width="2.04" stroke-linecap="round" opacity="0.50"/>
    <path d="M0.5,251.1 Q259.9,238.7 519.4,232.3" fill="none" stroke="#14161a" stroke-width="1.39" stroke-linecap="round" opacity="0.41"/>
    <path d="M756.2,208.7 Q858.0,205.0 959.0,199.6" fill="none" stroke="#14161a" stroke-width="1.95" stroke-linecap="round" opacity="0.44"/>
    <path d="M755.8,209.2 Q858.0,203.7 960.2,198.8" fill="none" stroke="#14161a" stroke-width="1.90" stroke-linecap="round" opacity="0.41"/>
    <path d="M555.8,95.1 L741.8,91.5 L740.8,352.4 L554.8,356.9 Z" fill="#6b7280" opacity="0.06"/>
    <path d="M556.5,96.5 Q649.0,91.9 742.0,92.4" fill="none" stroke="#14161a" stroke-width="2.16" stroke-linecap="round" opacity="0.93"/>
    <path d="M555.5,96.8 Q649.0,93.7 741.8,91.8" fill="none" stroke="#14161a" stroke-width="2.75" stroke-linecap="round" opacity="0.82"/>
    <path d="M741.4,92.6 Q741.3,222.0 741.6,351.2" fill="none" stroke="#14161a" stroke-width="2.86" stroke-linecap="round" opacity="0.77"/>
    <path d="M742.9,92.2 Q740.0,222.0 741.1,351.2" fill="none" stroke="#14161a" stroke-width="2.12" stroke-linecap="round" opacity="0.83"/>
    <path d="M742.8,351.7 Q649.0,353.5 555.4,356.1" fill="none" stroke="#14161a" stroke-width="2.05" stroke-linecap="round" opacity="0.74"/>
    <path d="M742.3,351.2 Q649.0,353.8 555.9,356.4" fill="none" stroke="#14161a" stroke-width="2.65" stroke-linecap="round" opacity="0.83"/>
    <path d="M555.4,356.4 Q557.7,226.0 556.5,96.7" fill="none" stroke="#14161a" stroke-width="2.39" stroke-linecap="round" opacity="0.75"/>
    <path d="M556.1,355.4 Q554.0,226.0 556.2,95.3" fill="none" stroke="#14161a" stroke-width="2.67" stroke-linecap="round" opacity="0.78"/>
    <path d="M658.5,113.6 Q659.8,116.0 658.2,117.9" fill="none" stroke="#14161a" stroke-width="1.65" stroke-linecap="round" opacity="0.85"/>
    <path d="M658.9,114.1 Q657.2,115.6 657.6,118.5" fill="none" stroke="#14161a" stroke-width="2.20" stroke-linecap="round" opacity="0.87"/>
    <path d="M658.2,118.4 Q657.1,119.9 655.7,122.0" fill="none" stroke="#14161a" stroke-width="1.93" stroke-linecap="round" opacity="0.80"/>
    <path d="M658.4,117.5 Q656.6,119.6 656.4,121.8" fill="none" stroke="#14161a" stroke-width="1.89" stroke-linecap="round" opacity="0.90"/>
    <path d="M656.3,121.7 Q655.6,124.2 653.6,124.4" fill="none" stroke="#14161a" stroke-width="2.15" stroke-linecap="round" opacity="0.92"/>
    <path d="M656.6,121.3 Q654.5,123.0 653.3,124.8" fill="none" stroke="#14161a" stroke-width="2.04" stroke-linecap="round" opacity="0.83"/>
    <path d="M652.8,124.8 Q651.8,126.6 649.2,125.7" fill="none" stroke="#14161a" stroke-width="1.79" stroke-linecap="round" opacity="0.85"/>
    <path d="M652.7,125.0 Q651.3,125.4 649.3,126.5" fill="none" stroke="#14161a" stroke-width="1.53" stroke-linecap="round" opacity="0.99"/>
    <path d="M650.1,126.7 Q647.6,126.0 646.0,125.8" fill="none" stroke="#14161a" stroke-width="1.79" stroke-linecap="round" opacity="0.78"/>
    <path d="M649.2,125.9 Q647.6,125.4 645.2,125.8" fill="none" stroke="#14161a" stroke-width="2.23" stroke-linecap="round" opacity="0.99"/>
    <path d="M645.9,126.2 Q643.6,125.8 642.0,124.5" fill="none" stroke="#14161a" stroke-width="2.00" stroke-linecap="round" opacity="0.79"/>
    <path d="M645.6,125.9 Q643.5,126.1 641.9,125.2" fill="none" stroke="#14161a" stroke-width="1.54" stroke-linecap="round" opacity="0.75"/>
    <path d="M641.4,124.4 Q641.0,122.6 639.3,121.9" fill="none" stroke="#14161a" stroke-width="1.69" stroke-linecap="round" opacity="0.74"/>
    <path d="M641.7,125.0 Q640.0,123.7 639.5,122.1" fill="none" stroke="#14161a" stroke-width="2.21" stroke-linecap="round" opacity="0.98"/>
    <path d="M639.4,122.4 Q638.9,119.4 636.5,117.8" fill="none" stroke="#14161a" stroke-width="1.71" stroke-linecap="round" opacity="0.89"/>
    <path d="M638.8,122.2 Q637.9,119.9 636.9,117.7" fill="none" stroke="#14161a" stroke-width="1.73" stroke-linecap="round" opacity="0.85"/>
    <path d="M637.1,117.9 Q637.0,115.7 636.0,113.5" fill="none" stroke="#14161a" stroke-width="1.77" stroke-linecap="round" opacity="0.77"/>
    <path d="M636.6,118.2 Q636.8,115.8 636.5,113.2" fill="none" stroke="#14161a" stroke-width="2.00" stroke-linecap="round" opacity="0.81"/>
    <path d="M636.4,113.9 Q636.5,111.4 637.4,109.5" fill="none" stroke="#14161a" stroke-width="1.68" stroke-linecap="round" opacity="0.87"/>
    <path d="M635.8,113.7 Q636.2,111.3 637.0,109.6" fill="none" stroke="#14161a" stroke-width="1.77" stroke-linecap="round" opacity="0.95"/>
    <path d="M636.5,109.5 Q638.0,107.3 638.7,105.4" fill="none" stroke="#14161a" stroke-width="1.57" stroke-linecap="round" opacity="0.72"/>
    <path d="M636.5,108.8 Q639.0,107.8 638.6,104.9" fill="none" stroke="#14161a" stroke-width="2.15" stroke-linecap="round" opacity="1.00"/>
    <path d="M638.8,105.8 Q640.7,104.3 641.9,102.1" fill="none" stroke="#14161a" stroke-width="2.04" stroke-linecap="round" opacity="0.82"/>
    <path d="M638.7,105.3 Q640.0,103.5 641.6,102.7" fill="none" stroke="#14161a" stroke-width="2.18" stroke-linecap="round" opacity="0.88"/>
    <path d="M642.1,102.0 Q643.3,100.5 645.6,101.4" fill="none" stroke="#14161a" stroke-width="2.03" stroke-linecap="round" opacity="0.97"/>
    <path d="M641.7,102.1 Q644.0,102.4 645.6,101.2" fill="none" stroke="#14161a" stroke-width="1.70" stroke-linecap="round" opacity="0.81"/>
    <path d="M645.4,101.1 Q647.6,101.7 649.6,101.5" fill="none" stroke="#14161a" stroke-width="1.54" stroke-linecap="round" opacity="0.77"/>
    <path d="M645.8,100.6 Q647.6,101.8 649.1,100.7" fill="none" stroke="#14161a" stroke-width="1.93" stroke-linecap="round" opacity="0.97"/>
    <path d="M649.2,101.2 Q651.7,101.0 653.1,102.9" fill="none" stroke="#14161a" stroke-width="2.28" stroke-linecap="round" opacity="0.98"/>
    <path d="M649.5,100.5 Q651.1,102.3 653.5,102.4" fill="none" stroke="#14161a" stroke-width="1.87" stroke-linecap="round" opacity="0.90"/>
    <path d="M653.3,103.0 Q653.8,104.9 656.7,104.9" fill="none" stroke="#14161a" stroke-width="1.79" stroke-linecap="round" opacity="0.97"/>
    <path d="M653.7,102.2 Q654.2,104.5 656.2,105.9" fill="none" stroke="#14161a" stroke-width="1.93" stroke-linecap="round" opacity="0.91"/>
    <path d="M655.8,104.9 Q656.0,107.9 658.5,109.3" fill="none" stroke="#14161a" stroke-width="1.67" stroke-linecap="round" opacity="0.95"/>
    <path d="M655.8,105.2 Q657.7,107.0 657.6,109.1" fill="none" stroke="#14161a" stroke-width="2.11" stroke-linecap="round" opacity="0.85"/>
    <path d="M657.6,108.9 Q657.2,111.6 658.4,113.7" fill="none" stroke="#14161a" stroke-width="1.67" stroke-linecap="round" opacity="0.91"/>
    <path d="M658.2,109.6 Q658.4,111.4 659.1,114.1" fill="none" stroke="#14161a" stroke-width="1.64" stroke-linecap="round" opacity="0.83"/>
    <path d="M636.4,115.5 Q636.1,120.3 637.7,124.3" fill="none" stroke="#14161a" stroke-width="2.05" stroke-linecap="round" opacity="0.90"/>
    <path d="M638.1,124.6 Q640.0,126.8 640.6,130.1" fill="none" stroke="#14161a" stroke-width="2.12" stroke-linecap="round" opacity="0.82"/>
    <path d="M640.6,129.6 Q642.5,129.7 643.1,131.1" fill="none" stroke="#14161a" stroke-width="2.05" stroke-linecap="round" opacity="0.78"/>
    <path d="M643.0,130.9 Q644.7,129.6 646.8,129.7" fill="none" stroke="#14161a" stroke-width="1.57" stroke-linecap="round" opacity="0.90"/>
    <path d="M646.9,130.1 Q650.9,128.0 653.4,125.0" fill="none" stroke="#14161a" stroke-width="1.84" stroke-linecap="round" opacity="0.73"/>
    <path d="M653.3,124.2 Q655.7,120.3 656.5,116.0" fill="none" stroke="#14161a" stroke-width="1.95" stroke-linecap="round" opacity="0.82"/>
    <path d="M635.8,111.7 L636.0,108.8 L637.9,106.4 L638.8,103.7 L641.4,102.2 L643.6,100.7 L646.7,99.7 L648.9,100.3 L650.9,101.1 L653.5,101.7 L655.6,103.9 L657.5,106.2 L658.2,109.0 L659.7,111.6 L657.6,112.7 L657.3,110.7 L656.8,109.4 L655.3,107.7 L653.1,107.3 L651.1,106.0 L648.2,105.7 L646.3,106.2 L644.7,106.6 L642.7,106.6 L639.8,107.8 L638.3,109.1 L637.9,110.9 L637.4,112.9 Z" fill="#14161a" opacity="0.90"/>
    <path d="M637.5,109.4 Q637.2,112.8 636.5,115.7" fill="none" stroke="#14161a" stroke-width="1.38" stroke-linecap="round" opacity="0.34"/>
    <path d="M658.6,109.4 Q657.9,112.8 659.0,115.8" fill="none" stroke="#14161a" stroke-width="1.29" stroke-linecap="round" opacity="0.42"/>
    <path d="M663.3,107.1 Q662.9,107.8 663.1,108.8" fill="none" stroke="#14161a" stroke-width="1.55" stroke-linecap="round" opacity="0.90"/>
    <path d="M663.1,106.9 Q663.2,107.9 663.1,109.0" fill="none" stroke="#14161a" stroke-width="1.24" stroke-linecap="round" opacity="0.85"/>
    <path d="M662.9,108.5 Q662.0,109.3 661.5,110.3" fill="none" stroke="#14161a" stroke-width="1.52" stroke-linecap="round" opacity="0.98"/>
    <path d="M662.5,108.6 Q662.0,109.3 661.6,109.8" fill="none" stroke="#14161a" stroke-width="1.78" stroke-linecap="round" opacity="0.92"/>
    <path d="M661.1,109.7 Q660.4,109.7 659.8,110.4" fill="none" stroke="#14161a" stroke-width="1.47" stroke-linecap="round" opacity="0.87"/>
    <path d="M661.3,110.3 Q660.4,109.7 659.2,110.8" fill="none" stroke="#14161a" stroke-width="1.62" stroke-linecap="round" opacity="0.81"/>
    <path d="M659.8,110.2 Q658.5,110.0 657.8,109.9" fill="none" stroke="#14161a" stroke-width="1.78" stroke-linecap="round" opacity="0.79"/>
    <path d="M659.5,110.6 Q658.8,109.4 657.3,109.5" fill="none" stroke="#14161a" stroke-width="1.47" stroke-linecap="round" opacity="0.95"/>
    <path d="M657.3,109.3 Q657.1,108.8 656.9,108.2" fill="none" stroke="#14161a" stroke-width="1.54" stroke-linecap="round" opacity="0.74"/>
    <path d="M658.0,109.4 Q657.6,108.4 656.6,107.8" fill="none" stroke="#14161a" stroke-width="1.23" stroke-linecap="round" opacity="0.93"/>
    <path d="M656.3,108.3 Q655.9,107.0 656.3,106.2" fill="none" stroke="#14161a" stroke-width="1.69" stroke-linecap="round" opacity="0.79"/>
    <path d="M656.4,108.1 Q656.3,107.0 657.0,106.2" fill="none" stroke="#14161a" stroke-width="1.50" stroke-linecap="round" opacity="0.87"/>
    <path d="M656.8,105.8 Q657.0,105.1 657.5,104.5" fill="none" stroke="#14161a" stroke-width="1.35" stroke-linecap="round" opacity="1.00"/>
    <path d="M656.3,105.6 Q657.5,105.4 657.7,104.1" fill="none" stroke="#14161a" stroke-width="1.50" stroke-linecap="round" opacity="0.89"/>
    <path d="M657.6,104.4 Q658.8,104.5 659.7,103.2" fill="none" stroke="#14161a" stroke-width="1.40" stroke-linecap="round" opacity="0.95"/>
    <path d="M658.0,104.0 Q658.4,103.7 659.1,103.4" fill="none" stroke="#14161a" stroke-width="1.48" stroke-linecap="round" opacity="0.82"/>
    <path d="M659.4,103.9 Q660.5,103.1 661.7,103.9" fill="none" stroke="#14161a" stroke-width="1.35" stroke-linecap="round" opacity="0.88"/>
    <path d="M659.1,103.8 Q660.5,103.0 661.2,103.5" fill="none" stroke="#14161a" stroke-width="1.69" stroke-linecap="round" opacity="0.75"/>
    <path d="M661.1,104.1 Q662.5,104.0 663.0,104.8" fill="none" stroke="#14161a" stroke-width="1.24" stroke-linecap="round" opacity="0.97"/>
    <path d="M661.6,104.0 Q662.6,103.9 663.0,105.1" fill="none" stroke="#14161a" stroke-width="1.45" stroke-linecap="round" opacity="0.80"/>
    <path d="M662.6,105.1 Q662.9,106.1 663.2,106.8" fill="none" stroke="#14161a" stroke-width="1.73" stroke-linecap="round" opacity="0.88"/>
    <path d="M663.0,104.7 Q662.9,106.1 663.7,107.3" fill="none" stroke="#14161a" stroke-width="1.65" stroke-linecap="round" opacity="0.87"/>
    <path d="M638.4,130.7 Q637.8,136.4 638.5,141.8" fill="none" stroke="#14161a" stroke-width="1.29" stroke-linecap="round" opacity="0.79"/>
    <path d="M647.7,128.5 Q650.9,133.3 651.9,138.7" fill="none" stroke="#14161a" stroke-width="1.82" stroke-linecap="round" opacity="0.92"/>
    <path d="M620.5,139.2 Q633.8,136.2 648.1,135.6" fill="none" stroke="#14161a" stroke-width="2.04" stroke-linecap="round" opacity="0.84"/>
    <path d="M619.9,140.1 Q634.2,138.9 647.4,134.9" fill="none" stroke="#14161a" stroke-width="1.77" stroke-linecap="round" opacity="0.73"/>
    <path d="M647.4,135.5 Q661.4,141.6 675.5,145.8" fill="none" stroke="#14161a" stroke-width="2.23" stroke-linecap="round" opacity="0.87"/>
    <path d="M648.0,135.0 Q662.0,140.0 675.2,146.2" fill="none" stroke="#14161a" stroke-width="2.28" stroke-linecap="round" opacity="0.93"/>
    <path d="M620.8,140.2 Q620.6,155.7 622.5,171.4" fill="none" stroke="#14161a" stroke-width="2.17" stroke-linecap="round" opacity="0.84"/>
    <path d="M622.2,171.2 Q626.7,185.3 631.8,197.9" fill="none" stroke="#14161a" stroke-width="2.30" stroke-linecap="round" opacity="0.91"/>
    <path d="M632.0,198.7 Q629.0,209.8 625.8,221.2" fill="none" stroke="#14161a" stroke-width="1.85" stroke-linecap="round" opacity="1.00"/>
    <path d="M675.8,145.6 Q674.9,158.9 673.5,171.8" fill="none" stroke="#14161a" stroke-width="2.04" stroke-linecap="round" opacity="0.93"/>
    <path d="M673.7,172.0 Q667.7,185.3 660.3,198.8" fill="none" stroke="#14161a" stroke-width="1.74" stroke-linecap="round" opacity="0.79"/>
    <path d="M660.3,198.1 Q661.4,206.6 664.1,215.0" fill="none" stroke="#14161a" stroke-width="2.49" stroke-linecap="round" opacity="0.78"/>
    <path d="M626.2,221.3 Q645.1,218.2 664.0,214.0" fill="none" stroke="#14161a" stroke-width="1.41" stroke-linecap="round" opacity="0.40"/>
    <path d="M633.2,185.4 Q644.2,183.2 655.2,184.4" fill="none" stroke="#14161a" stroke-width="1.67" stroke-linecap="round" opacity="0.35"/>
    <path d="M633.4,207.7 Q644.3,206.3 656.0,205.6" fill="none" stroke="#14161a" stroke-width="1.53" stroke-linecap="round" opacity="0.35"/>
    <clipPath id="c104"><rect x="655.38" y="142.772" width="16.728" height="73.8"/></clipPath>
    <g clip-path="url(#c104)">
    <path d="M162.3,951.4 Q556.3,142.2 951.6,-666.4" fill="none" stroke="#14161a" stroke-width="1.16" stroke-linecap="round" opacity="0.23"/>
    <path d="M169.4,951.2 Q563.6,142.4 958.8,-666.2" fill="none" stroke="#14161a" stroke-width="0.83" stroke-linecap="round" opacity="0.24"/>
    <path d="M176.3,951.7 Q571.0,142.6 965.5,-666.5" fill="none" stroke="#14161a" stroke-width="1.10" stroke-linecap="round" opacity="0.24"/>
    <path d="M183.9,951.9 Q578.0,142.6 973.1,-665.6" fill="none" stroke="#14161a" stroke-width="1.09" stroke-linecap="round" opacity="0.23"/>
    <path d="M190.3,951.3 Q586.5,143.3 979.5,-666.3" fill="none" stroke="#14161a" stroke-width="0.94" stroke-linecap="round" opacity="0.23"/>
    <path d="M197.7,951.7 Q592.7,142.9 987.1,-665.7" fill="none" stroke="#14161a" stroke-width="1.18" stroke-linecap="round" opacity="0.23"/>
    <path d="M205.4,952.1 Q599.1,142.6 994.3,-666.6" fill="none" stroke="#14161a" stroke-width="0.92" stroke-linecap="round" opacity="0.23"/>
    <path d="M211.8,952.2 Q605.9,142.5 1000.8,-666.1" fill="none" stroke="#14161a" stroke-width="0.93" stroke-linecap="round" opacity="0.25"/>
    <path d="M218.5,951.2 Q613.5,142.8 1008.2,-665.8" fill="none" stroke="#14161a" stroke-width="0.94" stroke-linecap="round" opacity="0.22"/>
    <path d="M226.0,951.8 Q619.4,142.3 1015.4,-665.9" fill="none" stroke="#14161a" stroke-width="1.03" stroke-linecap="round" opacity="0.25"/>
    <path d="M233.3,951.3 Q628.4,143.3 1021.5,-666.6" fill="none" stroke="#14161a" stroke-width="0.81" stroke-linecap="round" opacity="0.27"/>
    <path d="M239.8,952.0 Q635.5,143.3 1029.1,-666.0" fill="none" stroke="#14161a" stroke-width="0.96" stroke-linecap="round" opacity="0.28"/>
    <path d="M246.4,951.2 Q640.9,142.5 1036.2,-665.8" fill="none" stroke="#14161a" stroke-width="1.14" stroke-linecap="round" opacity="0.26"/>
    <path d="M253.7,951.4 Q647.7,142.4 1043.3,-666.7" fill="none" stroke="#14161a" stroke-width="0.92" stroke-linecap="round" opacity="0.25"/>
    <path d="M260.3,951.3 Q655.7,142.9 1049.5,-666.5" fill="none" stroke="#14161a" stroke-width="1.00" stroke-linecap="round" opacity="0.20"/>
    <path d="M267.8,951.9 Q663.2,143.2 1056.8,-665.8" fill="none" stroke="#14161a" stroke-width="0.84" stroke-linecap="round" opacity="0.27"/>
    <path d="M274.9,951.8 Q668.7,142.5 1064.1,-666.1" fill="none" stroke="#14161a" stroke-width="1.09" stroke-linecap="round" opacity="0.21"/>
    <path d="M281.8,951.8 Q676.5,142.8 1070.5,-665.9" fill="none" stroke="#14161a" stroke-width="0.83" stroke-linecap="round" opacity="0.21"/>
    <path d="M289.4,951.3 Q682.3,142.2 1078.1,-666.6" fill="none" stroke="#14161a" stroke-width="1.04" stroke-linecap="round" opacity="0.22"/>
    <path d="M296.1,951.9 Q690.6,142.9 1085.0,-665.9" fill="none" stroke="#14161a" stroke-width="0.80" stroke-linecap="round" opacity="0.21"/>
    <path d="M302.8,952.0 Q696.7,142.4 1091.4,-666.5" fill="none" stroke="#14161a" stroke-width="1.01" stroke-linecap="round" opacity="0.23"/>
    <path d="M309.6,951.2 Q703.3,142.3 1098.4,-665.8" fill="none" stroke="#14161a" stroke-width="0.93" stroke-linecap="round" opacity="0.26"/>
    <path d="M317.1,952.1 Q710.7,142.5 1105.4,-666.0" fill="none" stroke="#14161a" stroke-width="1.16" stroke-linecap="round" opacity="0.26"/>
    <path d="M324.1,952.0 Q717.4,142.3 1112.5,-666.0" fill="none" stroke="#14161a" stroke-width="1.05" stroke-linecap="round" opacity="0.22"/>
    <path d="M331.2,951.2 Q726.2,143.2 1119.9,-666.0" fill="none" stroke="#14161a" stroke-width="0.80" stroke-linecap="round" opacity="0.24"/>
    <path d="M337.7,951.7 Q733.5,143.3 1127.4,-665.7" fill="none" stroke="#14161a" stroke-width="1.18" stroke-linecap="round" opacity="0.21"/>
    <path d="M344.7,951.5 Q740.6,143.4 1133.6,-665.8" fill="none" stroke="#14161a" stroke-width="1.04" stroke-linecap="round" opacity="0.24"/>
    <path d="M351.9,951.8 Q746.4,142.8 1140.5,-665.9" fill="none" stroke="#14161a" stroke-width="0.90" stroke-linecap="round" opacity="0.20"/>
    </g>
    <path d="M612.4,139.2 Q609.9,167.2 609.5,195.7" fill="none" stroke="#14161a" stroke-width="1.88" stroke-linecap="round" opacity="0.79"/>
    <path d="M609.6,196.1 Q612.7,209.5 614.9,223.5" fill="none" stroke="#14161a" stroke-width="1.47" stroke-linecap="round" opacity="0.94"/>
    <path d="M627.4,140.4 Q622.6,168.0 619.7,196.5" fill="none" stroke="#14161a" stroke-width="1.95" stroke-linecap="round" opacity="0.74"/>
    <path d="M620.2,195.9 Q620.7,209.3 622.5,222.9" fill="none" stroke="#14161a" stroke-width="1.93" stroke-linecap="round" opacity="0.85"/>
    <path d="M614.7,223.7 Q618.7,223.8 622.5,222.6" fill="none" stroke="#14161a" stroke-width="1.60" stroke-linecap="round" opacity="0.60"/>
    <path d="M614.5,228.2 L615.1,225.0 L616.8,221.7 L620.1,222.0 L622.7,223.3 L624.4,227.4 L623.9,230.5 L621.2,233.5 L618.0,234.4 L615.6,231.6 L614.9,228.2 Z" fill="#6b7280" opacity="0.30"/>
    <path d="M614.7,228.3 Q614.9,226.7 614.6,224.9" fill="none" stroke="#14161a" stroke-width="1.73" stroke-linecap="round" opacity="0.95"/>
    <path d="M614.8,224.7 Q615.4,223.1 616.6,222.5" fill="none" stroke="#14161a" stroke-width="1.70" stroke-linecap="round" opacity="0.99"/>
    <path d="M617.2,222.1 Q618.5,222.7 619.9,222.1" fill="none" stroke="#14161a" stroke-width="1.20" stroke-linecap="round" opacity="0.74"/>
    <path d="M619.5,222.1 Q620.7,223.5 622.4,223.5" fill="none" stroke="#14161a" stroke-width="1.43" stroke-linecap="round" opacity="0.97"/>
    <path d="M622.2,223.9 Q623.0,225.5 623.8,227.4" fill="none" stroke="#14161a" stroke-width="1.50" stroke-linecap="round" opacity="0.96"/>
    <path d="M623.8,227.5 Q623.6,229.0 623.9,230.9" fill="none" stroke="#14161a" stroke-width="1.51" stroke-linecap="round" opacity="0.89"/>
    <path d="M623.4,231.2 Q622.3,232.0 621.5,233.8" fill="none" stroke="#14161a" stroke-width="1.54" stroke-linecap="round" opacity="0.98"/>
    <path d="M621.4,233.1 Q620.0,232.9 618.7,233.9" fill="none" stroke="#14161a" stroke-width="1.40" stroke-linecap="round" opacity="0.82"/>
    <path d="M618.3,233.9 Q617.1,233.3 616.0,231.9" fill="none" stroke="#14161a" stroke-width="1.71" stroke-linecap="round" opacity="0.84"/>
    <path d="M616.2,232.0 Q615.7,230.1 614.5,228.3" fill="none" stroke="#14161a" stroke-width="1.61" stroke-linecap="round" opacity="0.96"/>
    <path d="M614.8,228.8 Q614.6,228.5 614.6,228.5" fill="none" stroke="#14161a" stroke-width="1.79" stroke-linecap="round" opacity="0.91"/>
    <path d="M668.8,146.9 Q673.3,171.2 676.3,195.9" fill="none" stroke="#14161a" stroke-width="1.89" stroke-linecap="round" opacity="0.89"/>
    <path d="M676.3,195.9 Q674.5,209.2 673.8,222.9" fill="none" stroke="#14161a" stroke-width="1.50" stroke-linecap="round" opacity="0.96"/>
    <path d="M683.1,144.7 Q684.5,170.5 686.8,195.4" fill="none" stroke="#14161a" stroke-width="1.58" stroke-linecap="round" opacity="0.86"/>
    <path d="M687.2,195.9 Q683.7,209.6 681.6,223.6" fill="none" stroke="#14161a" stroke-width="1.46" stroke-linecap="round" opacity="0.81"/>
    <path d="M673.6,222.3 Q677.6,222.3 681.4,223.4" fill="none" stroke="#14161a" stroke-width="1.18" stroke-linecap="round" opacity="0.55"/>
    <path d="M672.6,227.1 L673.7,223.7 L676.1,222.0 L679.5,222.4 L681.4,224.6 L681.2,227.9 L680.1,231.5 L677.1,233.8 L674.3,233.1 L672.4,231.4 L672.2,227.4 Z" fill="#6b7280" opacity="0.30"/>
    <path d="M672.2,227.5 Q673.6,225.8 673.6,223.9" fill="none" stroke="#14161a" stroke-width="1.56" stroke-linecap="round" opacity="1.00"/>
    <path d="M673.4,223.8 Q674.9,222.8 675.9,221.7" fill="none" stroke="#14161a" stroke-width="1.77" stroke-linecap="round" opacity="0.76"/>
    <path d="M676.0,221.9 Q677.6,221.8 679.3,222.1" fill="none" stroke="#14161a" stroke-width="1.54" stroke-linecap="round" opacity="0.73"/>
    <path d="M679.0,222.3 Q680.4,223.2 681.3,225.1" fill="none" stroke="#14161a" stroke-width="1.51" stroke-linecap="round" opacity="0.79"/>
    <path d="M681.3,225.0 Q680.7,226.7 681.6,228.6" fill="none" stroke="#14161a" stroke-width="1.44" stroke-linecap="round" opacity="0.88"/>
    <path d="M681.6,228.8 Q681.0,230.3 679.9,232.2" fill="none" stroke="#14161a" stroke-width="1.26" stroke-linecap="round" opacity="0.74"/>
    <path d="M679.9,231.9 Q679.0,233.4 677.3,234.2" fill="none" stroke="#14161a" stroke-width="1.23" stroke-linecap="round" opacity="0.96"/>
    <path d="M677.2,233.9 Q675.9,234.1 674.4,233.5" fill="none" stroke="#14161a" stroke-width="1.22" stroke-linecap="round" opacity="0.89"/>
    <path d="M674.2,233.3 Q672.8,232.7 672.5,231.1" fill="none" stroke="#14161a" stroke-width="1.22" stroke-linecap="round" opacity="0.73"/>
    <path d="M672.3,231.1 Q672.1,229.0 672.3,227.5" fill="none" stroke="#14161a" stroke-width="1.79" stroke-linecap="round" opacity="0.99"/>
    <path d="M672.1,226.9 Q672.1,227.2 672.1,227.3" fill="none" stroke="#14161a" stroke-width="1.58" stroke-linecap="round" opacity="0.99"/>
    <path d="M613.5,221.5 Q615.6,249.3 617.3,277.2" fill="none" stroke="#14161a" stroke-width="1.82" stroke-linecap="round" opacity="0.94"/>
    <path d="M617.4,278.0 Q620.0,305.8 620.6,333.8" fill="none" stroke="#14161a" stroke-width="1.94" stroke-linecap="round" opacity="0.76"/>
    <path d="M637.9,221.0 Q634.4,249.4 632.7,277.3" fill="none" stroke="#14161a" stroke-width="2.18" stroke-linecap="round" opacity="0.77"/>
    <path d="M632.6,277.5 Q632.8,305.9 630.8,334.6" fill="none" stroke="#14161a" stroke-width="1.82" stroke-linecap="round" opacity="0.96"/>
    <path d="M620.7,334.5 Q622.1,339.0 622.0,344.1" fill="none" stroke="#14161a" stroke-width="1.42" stroke-linecap="round" opacity="1.00"/>
    <path d="M621.8,343.6 Q617.7,344.3 613.4,343.9" fill="none" stroke="#14161a" stroke-width="1.90" stroke-linecap="round" opacity="0.93"/>
    <path d="M613.6,344.1 Q621.5,338.8 629.5,333.9" fill="none" stroke="#14161a" stroke-width="1.45" stroke-linecap="round" opacity="0.74"/>
    <path d="M652.3,215.8 Q657.8,247.8 661.7,280.9" fill="none" stroke="#14161a" stroke-width="1.86" stroke-linecap="round" opacity="0.80"/>
    <path d="M661.2,281.1 Q665.4,307.7 669.9,334.6" fill="none" stroke="#14161a" stroke-width="1.73" stroke-linecap="round" opacity="0.92"/>
    <path d="M677.0,214.0 Q675.6,246.4 677.3,279.7" fill="none" stroke="#14161a" stroke-width="1.88" stroke-linecap="round" opacity="0.91"/>
    <path d="M677.6,279.1 Q679.2,306.5 680.0,334.0" fill="none" stroke="#14161a" stroke-width="2.19" stroke-linecap="round" opacity="0.82"/>
    <path d="M669.2,334.5 Q670.2,339.1 670.7,343.7" fill="none" stroke="#14161a" stroke-width="1.59" stroke-linecap="round" opacity="0.83"/>
    <path d="M670.4,343.8 Q678.5,343.9 686.4,344.2" fill="none" stroke="#14161a" stroke-width="1.68" stroke-linecap="round" opacity="0.84"/>
    <path d="M686.8,344.3 Q682.2,339.3 678.7,333.7" fill="none" stroke="#14161a" stroke-width="1.88" stroke-linecap="round" opacity="0.84"/>
    <path d="M662.7,274.7 Q668.7,274.9 674.6,273.9" fill="none" stroke="#14161a" stroke-width="1.13" stroke-linecap="round" opacity="0.36"/>
    <clipPath id="c184"><rect x="556" y="250" width="186" height="106"/></clipPath>
    <g clip-path="url(#c184)">
    <path d="M-179.1,1044.1 Q243.4,249.7 666.4,-544.9" fill="none" stroke="#14161a" stroke-width="0.96" stroke-linecap="round" opacity="0.23"/>
    <path d="M-165.5,1044.7 Q257.7,250.4 680.0,-544.9" fill="none" stroke="#14161a" stroke-width="1.27" stroke-linecap="round" opacity="0.25"/>
    <path d="M-152.1,1044.3 Q270.5,250.3 692.4,-544.6" fill="none" stroke="#14161a" stroke-width="1.11" stroke-linecap="round" opacity="0.28"/>
    <path d="M-139.8,1045.0 Q282.3,249.7 705.9,-544.9" fill="none" stroke="#14161a" stroke-width="0.90" stroke-linecap="round" opacity="0.24"/>
    <path d="M-126.1,1044.7 Q296.2,250.1 718.6,-544.3" fill="none" stroke="#14161a" stroke-width="1.17" stroke-linecap="round" opacity="0.25"/>
    <path d="M-113.3,1044.6 Q307.8,249.4 731.6,-544.6" fill="none" stroke="#14161a" stroke-width="1.22" stroke-linecap="round" opacity="0.21"/>
    <path d="M-100.9,1045.0 Q322.9,250.5 744.9,-545.2" fill="none" stroke="#14161a" stroke-width="1.12" stroke-linecap="round" opacity="0.27"/>
    <path d="M-87.9,1045.1 Q334.5,249.8 757.2,-544.1" fill="none" stroke="#14161a" stroke-width="1.03" stroke-linecap="round" opacity="0.28"/>
    <path d="M-75.0,1044.4 Q348.1,250.1 770.6,-545.2" fill="none" stroke="#14161a" stroke-width="0.98" stroke-linecap="round" opacity="0.23"/>
    <path d="M-61.0,1044.7 Q360.0,249.5 783.4,-544.8" fill="none" stroke="#14161a" stroke-width="0.93" stroke-linecap="round" opacity="0.25"/>
    <path d="M-48.2,1045.1 Q374.4,250.2 796.9,-544.8" fill="none" stroke="#14161a" stroke-width="0.98" stroke-linecap="round" opacity="0.21"/>
    <path d="M-35.4,1044.2 Q387.5,250.3 809.8,-544.2" fill="none" stroke="#14161a" stroke-width="0.89" stroke-linecap="round" opacity="0.25"/>
    <path d="M-22.3,1044.4 Q400.7,250.4 822.4,-545.1" fill="none" stroke="#14161a" stroke-width="0.98" stroke-linecap="round" opacity="0.25"/>
    <path d="M-9.7,1044.8 Q414.0,250.5 836.0,-544.4" fill="none" stroke="#14161a" stroke-width="0.97" stroke-linecap="round" opacity="0.23"/>
    <path d="M2.9,1044.6 Q427.1,250.6 848.4,-545.0" fill="none" stroke="#14161a" stroke-width="1.13" stroke-linecap="round" opacity="0.23"/>
    <path d="M16.8,1044.9 Q438.4,249.7 862.0,-545.2" fill="none" stroke="#14161a" stroke-width="1.23" stroke-linecap="round" opacity="0.24"/>
    <path d="M29.9,1044.7 Q452.0,250.0 875.0,-544.3" fill="none" stroke="#14161a" stroke-width="0.91" stroke-linecap="round" opacity="0.27"/>
    <path d="M42.5,1044.7 Q464.5,249.7 887.7,-545.1" fill="none" stroke="#14161a" stroke-width="1.11" stroke-linecap="round" opacity="0.25"/>
    <path d="M55.8,1044.7 Q477.5,249.7 900.5,-545.0" fill="none" stroke="#14161a" stroke-width="0.95" stroke-linecap="round" opacity="0.23"/>
    <path d="M69.0,1044.9 Q490.9,250.0 913.1,-544.9" fill="none" stroke="#14161a" stroke-width="1.28" stroke-linecap="round" opacity="0.20"/>
    <path d="M81.8,1045.1 Q505.1,250.6 926.2,-544.3" fill="none" stroke="#14161a" stroke-width="1.09" stroke-linecap="round" opacity="0.24"/>
    <path d="M94.3,1044.9 Q516.4,249.7 939.3,-544.1" fill="none" stroke="#14161a" stroke-width="1.22" stroke-linecap="round" opacity="0.27"/>
    <path d="M107.7,1044.4 Q530.4,250.2 952.1,-545.1" fill="none" stroke="#14161a" stroke-width="1.16" stroke-linecap="round" opacity="0.27"/>
    <path d="M120.5,1044.4 Q542.7,249.8 965.7,-544.2" fill="none" stroke="#14161a" stroke-width="1.20" stroke-linecap="round" opacity="0.24"/>
    <path d="M133.4,1045.2 Q557.0,250.5 978.9,-544.4" fill="none" stroke="#14161a" stroke-width="1.17" stroke-linecap="round" opacity="0.23"/>
    <path d="M146.3,1044.9 Q568.7,249.8 991.9,-545.0" fill="none" stroke="#14161a" stroke-width="1.10" stroke-linecap="round" opacity="0.22"/>
    <path d="M159.1,1045.1 Q581.5,249.7 1004.5,-544.3" fill="none" stroke="#14161a" stroke-width="0.95" stroke-linecap="round" opacity="0.26"/>
    <path d="M173.0,1044.6 Q595.2,250.1 1017.3,-545.1" fill="none" stroke="#14161a" stroke-width="1.23" stroke-linecap="round" opacity="0.26"/>
    <path d="M185.5,1044.9 Q606.8,249.4 1030.4,-545.1" fill="none" stroke="#14161a" stroke-width="1.04" stroke-linecap="round" opacity="0.25"/>
    <path d="M198.6,1044.1 Q621.0,250.0 1043.5,-544.8" fill="none" stroke="#14161a" stroke-width="1.28" stroke-linecap="round" opacity="0.27"/>
    <path d="M211.4,1044.9 Q635.0,250.5 1056.7,-544.2" fill="none" stroke="#14161a" stroke-width="1.05" stroke-linecap="round" opacity="0.26"/>
    <path d="M224.4,1044.4 Q647.0,250.0 1069.1,-544.9" fill="none" stroke="#14161a" stroke-width="1.13" stroke-linecap="round" opacity="0.28"/>
    <path d="M237.9,1045.0 Q659.2,249.6 1082.8,-544.7" fill="none" stroke="#14161a" stroke-width="1.09" stroke-linecap="round" opacity="0.25"/>
    <path d="M250.9,1044.1 Q673.7,250.4 1096.0,-544.3" fill="none" stroke="#14161a" stroke-width="1.27" stroke-linecap="round" opacity="0.23"/>
    <path d="M263.9,1045.1 Q685.5,249.8 1108.4,-544.7" fill="none" stroke="#14161a" stroke-width="1.00" stroke-linecap="round" opacity="0.21"/>
    <path d="M276.3,1044.3 Q698.2,249.6 1121.6,-544.4" fill="none" stroke="#14161a" stroke-width="1.11" stroke-linecap="round" opacity="0.22"/>
    <path d="M289.4,1044.3 Q711.3,249.6 1134.4,-545.0" fill="none" stroke="#14161a" stroke-width="1.19" stroke-linecap="round" opacity="0.26"/>
    <path d="M302.1,1044.5 Q724.0,249.5 1147.2,-544.2" fill="none" stroke="#14161a" stroke-width="1.09" stroke-linecap="round" opacity="0.20"/>
    <path d="M315.7,1045.1 Q737.6,249.8 1160.3,-544.2" fill="none" stroke="#14161a" stroke-width="0.96" stroke-linecap="round" opacity="0.22"/>
    <path d="M328.6,1044.5 Q751.5,250.3 1173.1,-544.6" fill="none" stroke="#14161a" stroke-width="0.98" stroke-linecap="round" opacity="0.27"/>
    <path d="M341.7,1044.8 Q765.2,250.6 1186.1,-545.1" fill="none" stroke="#14161a" stroke-width="1.07" stroke-linecap="round" opacity="0.23"/>
    <path d="M355.0,1044.6 Q777.5,250.3 1199.8,-544.1" fill="none" stroke="#14161a" stroke-width="0.98" stroke-linecap="round" opacity="0.20"/>
    <path d="M367.8,1044.7 Q789.1,249.5 1212.8,-544.1" fill="none" stroke="#14161a" stroke-width="0.94" stroke-linecap="round" opacity="0.25"/>
    <path d="M380.4,1044.7 Q803.0,250.0 1225.6,-544.3" fill="none" stroke="#14161a" stroke-width="1.11" stroke-linecap="round" opacity="0.27"/>
    <path d="M393.9,1044.7 Q815.6,249.8 1238.7,-544.6" fill="none" stroke="#14161a" stroke-width="1.19" stroke-linecap="round" opacity="0.24"/>
    <path d="M406.8,1044.1 Q829.5,250.3 1251.5,-544.9" fill="none" stroke="#14161a" stroke-width="0.91" stroke-linecap="round" opacity="0.21"/>
    <path d="M419.0,1044.8 Q842.6,250.3 1264.0,-545.0" fill="none" stroke="#14161a" stroke-width="1.08" stroke-linecap="round" opacity="0.26"/>
    <path d="M432.4,1044.7 Q855.5,250.3 1277.7,-545.2" fill="none" stroke="#14161a" stroke-width="1.06" stroke-linecap="round" opacity="0.24"/>
    </g>
    <path d="M60.0,470.0 Q264.3,418.1 470.5,371.1" fill="none" stroke="#14161a" stroke-width="2.93" stroke-linecap="round" opacity="0.90"/>
    <path d="M58.9,470.8 Q264.8,420.1 470.4,373.2" fill="none" stroke="#14161a" stroke-width="3.09" stroke-linecap="round" opacity="0.79"/>
    <path d="M470.0,372.7 Q714.9,401.7 959.8,430.1" fill="none" stroke="#14161a" stroke-width="2.14" stroke-linecap="round" opacity="0.98"/>
    <path d="M469.9,372.7 Q715.3,398.3 959.3,429.5" fill="none" stroke="#14161a" stroke-width="2.76" stroke-linecap="round" opacity="0.74"/>
    <path d="M470.9,371.6 Q470.0,456.0 470.4,540.0" fill="none" stroke="#14161a" stroke-width="1.93" stroke-linecap="round" opacity="0.52"/>
    <path d="M469.3,372.1 Q467.7,456.0 469.7,539.3" fill="none" stroke="#14161a" stroke-width="1.85" stroke-linecap="round" opacity="0.58"/>
    <clipPath id="c241"><rect x="470" y="372" width="490" height="168"/></clipPath>
    <g clip-path="url(#c241)">
    <path d="M-732.3,1109.7 Q-216.1,371.9 299.7,-365.1" fill="none" stroke="#14161a" stroke-width="1.28" stroke-linecap="round" opacity="0.22"/>
    <path d="M-718.4,1109.5 Q-202.4,371.7 314.2,-365.7" fill="none" stroke="#14161a" stroke-width="0.94" stroke-linecap="round" opacity="0.21"/>
    <path d="M-703.8,1109.6 Q-187.9,372.1 328.0,-365.3" fill="none" stroke="#14161a" stroke-width="1.06" stroke-linecap="round" opacity="0.19"/>
    <path d="M-690.4,1109.0 Q-174.6,371.6 342.1,-365.1" fill="none" stroke="#14161a" stroke-width="1.08" stroke-linecap="round" opacity="0.16"/>
    <path d="M-675.7,1109.7 Q-159.8,372.2 356.6,-364.8" fill="none" stroke="#14161a" stroke-width="0.96" stroke-linecap="round" opacity="0.21"/>
    <path d="M-662.4,1109.1 Q-146.3,371.8 370.7,-365.0" fill="none" stroke="#14161a" stroke-width="1.18" stroke-linecap="round" opacity="0.18"/>
    <path d="M-648.5,1109.2 Q-131.5,372.3 384.6,-364.7" fill="none" stroke="#14161a" stroke-width="1.14" stroke-linecap="round" opacity="0.19"/>
    <path d="M-634.6,1109.4 Q-118.2,371.9 398.4,-365.7" fill="none" stroke="#14161a" stroke-width="1.03" stroke-linecap="round" opacity="0.18"/>
    <path d="M-619.9,1109.0 Q-103.1,372.6 412.0,-365.4" fill="none" stroke="#14161a" stroke-width="0.93" stroke-linecap="round" opacity="0.17"/>
    <path d="M-606.6,1109.4 Q-90.5,371.6 425.7,-364.9" fill="none" stroke="#14161a" stroke-width="1.21" stroke-linecap="round" opacity="0.17"/>
    <path d="M-592.1,1109.7 Q-76.3,371.8 439.8,-364.9" fill="none" stroke="#14161a" stroke-width="1.01" stroke-linecap="round" opacity="0.21"/>
    <path d="M-578.4,1108.9 Q-61.5,372.4 454.0,-365.0" fill="none" stroke="#14161a" stroke-width="1.16" stroke-linecap="round" opacity="0.17"/>
    <path d="M-564.3,1108.7 Q-48.6,371.6 468.3,-364.8" fill="none" stroke="#14161a" stroke-width="0.92" stroke-linecap="round" opacity="0.16"/>
    <path d="M-550.0,1109.6 Q-33.5,372.4 482.2,-364.7" fill="none" stroke="#14161a" stroke-width="1.25" stroke-linecap="round" opacity="0.18"/>
    <path d="M-536.7,1109.3 Q-20.3,371.8 496.4,-365.2" fill="none" stroke="#14161a" stroke-width="1.13" stroke-linecap="round" opacity="0.21"/>
    <path d="M-522.5,1108.7 Q-5.1,372.6 509.8,-364.7" fill="none" stroke="#14161a" stroke-width="0.99" stroke-linecap="round" opacity="0.22"/>
    <path d="M-508.8,1109.2 Q8.3,372.2 523.9,-365.4" fill="none" stroke="#14161a" stroke-width="1.04" stroke-linecap="round" opacity="0.17"/>
    <path d="M-494.7,1109.7 Q20.9,371.2 538.1,-365.2" fill="none" stroke="#14161a" stroke-width="0.92" stroke-linecap="round" opacity="0.19"/>
    <path d="M-479.8,1109.0 Q36.6,372.4 552.8,-365.0" fill="none" stroke="#14161a" stroke-width="1.01" stroke-linecap="round" opacity="0.17"/>
    <path d="M-466.5,1108.8 Q49.4,371.6 566.3,-364.8" fill="none" stroke="#14161a" stroke-width="1.10" stroke-linecap="round" opacity="0.21"/>
    <path d="M-451.7,1109.3 Q64.9,372.6 580.4,-365.0" fill="none" stroke="#14161a" stroke-width="1.28" stroke-linecap="round" opacity="0.20"/>
    <path d="M-438.1,1109.6 Q78.6,372.4 594.6,-365.7" fill="none" stroke="#14161a" stroke-width="1.29" stroke-linecap="round" opacity="0.18"/>
    <path d="M-423.9,1108.7 Q92.3,372.2 608.4,-365.1" fill="none" stroke="#14161a" stroke-width="1.13" stroke-linecap="round" opacity="0.19"/>
    <path d="M-410.3,1109.3 Q106.4,372.3 622.6,-364.9" fill="none" stroke="#14161a" stroke-width="1.16" stroke-linecap="round" opacity="0.22"/>
    <path d="M-395.9,1109.3 Q120.4,372.3 636.3,-364.9" fill="none" stroke="#14161a" stroke-width="1.26" stroke-linecap="round" opacity="0.19"/>
    <path d="M-382.3,1109.0 Q133.0,371.3 650.6,-365.0" fill="none" stroke="#14161a" stroke-width="1.18" stroke-linecap="round" opacity="0.21"/>
    <path d="M-368.2,1108.7 Q148.1,372.1 664.1,-364.9" fill="none" stroke="#14161a" stroke-width="0.96" stroke-linecap="round" opacity="0.19"/>
    <path d="M-354.5,1109.0 Q161.5,371.7 677.9,-365.0" fill="none" stroke="#14161a" stroke-width="0.99" stroke-linecap="round" opacity="0.21"/>
    <path d="M-339.7,1109.6 Q175.0,371.3 692.7,-365.5" fill="none" stroke="#14161a" stroke-width="0.88" stroke-linecap="round" opacity="0.21"/>
    <path d="M-326.6,1109.7 Q190.1,372.1 706.0,-365.6" fill="none" stroke="#14161a" stroke-width="1.23" stroke-linecap="round" opacity="0.20"/>
    <path d="M-312.4,1109.3 Q203.2,371.5 720.4,-364.9" fill="none" stroke="#14161a" stroke-width="0.96" stroke-linecap="round" opacity="0.22"/>
    <path d="M-298.6,1109.5 Q217.6,371.7 734.3,-365.2" fill="none" stroke="#14161a" stroke-width="1.12" stroke-linecap="round" opacity="0.20"/>
    <path d="M-284.3,1109.1 Q232.2,372.1 747.8,-365.7" fill="none" stroke="#14161a" stroke-width="1.03" stroke-linecap="round" opacity="0.16"/>
    <path d="M-270.7,1109.4 Q246.7,372.5 762.2,-364.8" fill="none" stroke="#14161a" stroke-width="1.17" stroke-linecap="round" opacity="0.18"/>
    <path d="M-256.1,1108.8 Q259.3,371.5 775.9,-364.8" fill="none" stroke="#14161a" stroke-width="1.25" stroke-linecap="round" opacity="0.22"/>
    <path d="M-242.2,1108.8 Q275.0,372.7 790.5,-364.8" fill="none" stroke="#14161a" stroke-width="0.92" stroke-linecap="round" opacity="0.18"/>
    <path d="M-228.5,1109.0 Q288.8,372.5 804.0,-364.8" fill="none" stroke="#14161a" stroke-width="0.90" stroke-linecap="round" opacity="0.17"/>
    <path d="M-214.3,1109.2 Q301.6,371.7 818.7,-365.8" fill="none" stroke="#14161a" stroke-width="1.01" stroke-linecap="round" opacity="0.19"/>
    <path d="M-200.5,1109.8 Q315.0,371.3 832.8,-365.2" fill="none" stroke="#14161a" stroke-width="1.30" stroke-linecap="round" opacity="0.17"/>
    <path d="M-185.9,1109.7 Q330.7,372.5 845.9,-365.2" fill="none" stroke="#14161a" stroke-width="1.30" stroke-linecap="round" opacity="0.21"/>
    <path d="M-172.3,1109.7 Q344.2,372.2 860.6,-365.6" fill="none" stroke="#14161a" stroke-width="1.25" stroke-linecap="round" opacity="0.18"/>
    <path d="M-158.5,1109.4 Q358.7,372.5 874.7,-365.6" fill="none" stroke="#14161a" stroke-width="1.11" stroke-linecap="round" opacity="0.17"/>
    <path d="M-144.8,1109.0 Q371.1,371.3 887.9,-364.9" fill="none" stroke="#14161a" stroke-width="0.93" stroke-linecap="round" opacity="0.18"/>
    <path d="M-130.7,1109.4 Q384.9,371.2 902.5,-365.1" fill="none" stroke="#14161a" stroke-width="1.14" stroke-linecap="round" opacity="0.16"/>
    <path d="M-116.5,1109.5 Q399.8,371.9 916.4,-365.3" fill="none" stroke="#14161a" stroke-width="1.05" stroke-linecap="round" opacity="0.16"/>
    <path d="M-102.7,1109.7 Q413.9,371.9 929.7,-364.9" fill="none" stroke="#14161a" stroke-width="1.14" stroke-linecap="round" opacity="0.19"/>
    <path d="M-88.3,1109.1 Q427.4,371.6 944.0,-365.0" fill="none" stroke="#14161a" stroke-width="0.97" stroke-linecap="round" opacity="0.17"/>
    <path d="M-74.7,1109.7 Q442.3,372.2 958.3,-365.7" fill="none" stroke="#14161a" stroke-width="1.28" stroke-linecap="round" opacity="0.19"/>
    <path d="M-60.2,1109.6 Q455.1,371.4 972.0,-365.1" fill="none" stroke="#14161a" stroke-width="1.02" stroke-linecap="round" opacity="0.16"/>
    <path d="M-46.3,1109.1 Q469.9,371.9 986.6,-364.8" fill="none" stroke="#14161a" stroke-width="1.11" stroke-linecap="round" opacity="0.20"/>
    <path d="M-32.4,1109.5 Q484.7,372.5 999.8,-365.5" fill="none" stroke="#14161a" stroke-width="1.01" stroke-linecap="round" opacity="0.20"/>
    <path d="M-17.7,1109.3 Q497.0,371.3 1014.6,-365.4" fill="none" stroke="#14161a" stroke-width="1.27" stroke-linecap="round" opacity="0.20"/>
    <path d="M-4.3,1109.1 Q512.6,372.4 1028.5,-365.6" fill="none" stroke="#14161a" stroke-width="1.01" stroke-linecap="round" opacity="0.18"/>
    <path d="M9.3,1109.0 Q526.0,372.0 1041.9,-364.9" fill="none" stroke="#14161a" stroke-width="1.24" stroke-linecap="round" opacity="0.21"/>
    <path d="M24.3,1109.7 Q540.8,372.6 1056.2,-365.6" fill="none" stroke="#14161a" stroke-width="1.02" stroke-linecap="round" opacity="0.18"/>
    <path d="M37.2,1109.2 Q553.5,371.7 1070.8,-365.7" fill="none" stroke="#14161a" stroke-width="1.05" stroke-linecap="round" opacity="0.17"/>
    <path d="M52.1,1109.3 Q567.5,371.7 1084.5,-365.6" fill="none" stroke="#14161a" stroke-width="1.08" stroke-linecap="round" opacity="0.19"/>
    <path d="M65.6,1109.2 Q581.2,371.5 1098.5,-364.7" fill="none" stroke="#14161a" stroke-width="1.19" stroke-linecap="round" opacity="0.22"/>
    <path d="M79.6,1108.7 Q596.1,372.0 1111.9,-364.8" fill="none" stroke="#14161a" stroke-width="1.23" stroke-linecap="round" opacity="0.20"/>
    <path d="M93.9,1108.8 Q608.9,371.2 1125.9,-365.1" fill="none" stroke="#14161a" stroke-width="1.13" stroke-linecap="round" opacity="0.21"/>
    <path d="M108.2,1109.7 Q624.0,372.0 1140.5,-365.7" fill="none" stroke="#14161a" stroke-width="1.10" stroke-linecap="round" opacity="0.16"/>
    <path d="M122.1,1109.1 Q637.6,371.7 1154.7,-364.9" fill="none" stroke="#14161a" stroke-width="1.13" stroke-linecap="round" opacity="0.18"/>
    <path d="M136.2,1109.5 Q651.6,371.7 1168.2,-365.4" fill="none" stroke="#14161a" stroke-width="1.09" stroke-linecap="round" opacity="0.18"/>
    <path d="M149.6,1109.8 Q664.9,371.2 1182.7,-365.3" fill="none" stroke="#14161a" stroke-width="1.19" stroke-linecap="round" opacity="0.20"/>
    <path d="M164.2,1109.3 Q679.2,371.4 1195.7,-365.2" fill="none" stroke="#14161a" stroke-width="0.98" stroke-linecap="round" opacity="0.20"/>
    <path d="M177.5,1109.5 Q695.1,372.8 1210.6,-365.1" fill="none" stroke="#14161a" stroke-width="1.09" stroke-linecap="round" opacity="0.21"/>
    <path d="M191.8,1109.4 Q708.1,372.1 1223.8,-364.8" fill="none" stroke="#14161a" stroke-width="1.29" stroke-linecap="round" opacity="0.18"/>
    <path d="M205.4,1109.2 Q722.0,372.0 1237.8,-365.6" fill="none" stroke="#14161a" stroke-width="1.04" stroke-linecap="round" opacity="0.22"/>
    <path d="M219.4,1109.3 Q736.5,372.3 1252.4,-365.4" fill="none" stroke="#14161a" stroke-width="1.31" stroke-linecap="round" opacity="0.22"/>
    <path d="M234.0,1109.8 Q749.8,371.9 1266.7,-364.8" fill="none" stroke="#14161a" stroke-width="1.03" stroke-linecap="round" opacity="0.22"/>
    <path d="M247.5,1109.3 Q764.4,372.3 1280.2,-365.1" fill="none" stroke="#14161a" stroke-width="1.25" stroke-linecap="round" opacity="0.16"/>
    <path d="M262.3,1108.8 Q778.5,372.4 1294.5,-365.1" fill="none" stroke="#14161a" stroke-width="1.15" stroke-linecap="round" opacity="0.19"/>
    <path d="M275.5,1108.7 Q792.4,372.3 1307.9,-365.8" fill="none" stroke="#14161a" stroke-width="0.92" stroke-linecap="round" opacity="0.17"/>
    <path d="M289.9,1109.6 Q805.0,371.3 1321.9,-365.0" fill="none" stroke="#14161a" stroke-width="1.13" stroke-linecap="round" opacity="0.16"/>
    <path d="M303.8,1109.5 Q819.3,371.5 1336.7,-365.7" fill="none" stroke="#14161a" stroke-width="1.08" stroke-linecap="round" opacity="0.21"/>
    <path d="M317.6,1108.9 Q833.9,371.9 1349.9,-365.0" fill="none" stroke="#14161a" stroke-width="0.93" stroke-linecap="round" opacity="0.17"/>
    <path d="M332.1,1108.8 Q847.3,371.5 1364.6,-365.1" fill="none" stroke="#14161a" stroke-width="1.31" stroke-linecap="round" opacity="0.19"/>
    <path d="M345.9,1109.6 Q862.0,372.0 1377.9,-365.7" fill="none" stroke="#14161a" stroke-width="1.04" stroke-linecap="round" opacity="0.17"/>
    <path d="M360.3,1109.3 Q877.1,372.8 1392.3,-365.7" fill="none" stroke="#14161a" stroke-width="0.96" stroke-linecap="round" opacity="0.18"/>
    <path d="M374.1,1109.1 Q889.8,371.9 1406.1,-365.7" fill="none" stroke="#14161a" stroke-width="1.22" stroke-linecap="round" opacity="0.19"/>
    <path d="M387.4,1109.1 Q904.5,372.3 1420.2,-365.1" fill="none" stroke="#14161a" stroke-width="0.91" stroke-linecap="round" opacity="0.20"/>
    <path d="M401.6,1109.0 Q918.1,372.1 1434.7,-365.7" fill="none" stroke="#14161a" stroke-width="1.22" stroke-linecap="round" opacity="0.20"/>
    <path d="M415.3,1109.0 Q931.9,371.9 1448.7,-364.7" fill="none" stroke="#14161a" stroke-width="0.93" stroke-linecap="round" opacity="0.20"/>
    <path d="M429.4,1109.8 Q947.1,372.8 1462.3,-365.6" fill="none" stroke="#14161a" stroke-width="1.01" stroke-linecap="round" opacity="0.20"/>
    <path d="M443.5,1109.6 Q959.1,371.4 1475.9,-364.9" fill="none" stroke="#14161a" stroke-width="1.29" stroke-linecap="round" opacity="0.21"/>
    <path d="M457.6,1109.1 Q973.0,371.3 1490.2,-365.8" fill="none" stroke="#14161a" stroke-width="1.11" stroke-linecap="round" opacity="0.17"/>
    <path d="M472.0,1109.0 Q988.9,372.6 1504.3,-365.6" fill="none" stroke="#14161a" stroke-width="1.28" stroke-linecap="round" opacity="0.19"/>
    <path d="M485.8,1109.0 Q1001.9,371.9 1518.0,-364.7" fill="none" stroke="#14161a" stroke-width="1.24" stroke-linecap="round" opacity="0.19"/>
    <path d="M499.9,1109.7 Q1014.9,371.3 1531.7,-365.4" fill="none" stroke="#14161a" stroke-width="1.31" stroke-linecap="round" opacity="0.22"/>
    <path d="M513.2,1109.0 Q1029.6,371.7 1546.0,-365.6" fill="none" stroke="#14161a" stroke-width="1.11" stroke-linecap="round" opacity="0.20"/>
    <path d="M528.1,1109.4 Q1044.6,372.4 1559.8,-365.4" fill="none" stroke="#14161a" stroke-width="1.07" stroke-linecap="round" opacity="0.20"/>
    <path d="M541.9,1109.4 Q1056.9,371.2 1574.3,-364.8" fill="none" stroke="#14161a" stroke-width="1.22" stroke-linecap="round" opacity="0.16"/>
    <path d="M555.5,1109.0 Q1072.9,372.7 1588.2,-364.8" fill="none" stroke="#14161a" stroke-width="1.01" stroke-linecap="round" opacity="0.17"/>
    <path d="M569.2,1109.0 Q1085.6,371.7 1602.0,-364.8" fill="none" stroke="#14161a" stroke-width="1.23" stroke-linecap="round" opacity="0.16"/>
    <path d="M584.1,1108.7 Q1100.0,372.0 1615.8,-365.1" fill="none" stroke="#14161a" stroke-width="1.03" stroke-linecap="round" opacity="0.21"/>
    <path d="M598.2,1109.3 Q1114.0,372.0 1630.4,-365.8" fill="none" stroke="#14161a" stroke-width="1.13" stroke-linecap="round" opacity="0.18"/>
    <path d="M611.6,1109.5 Q1127.8,371.9 1644.0,-365.3" fill="none" stroke="#14161a" stroke-width="1.21" stroke-linecap="round" opacity="0.19"/>
    <path d="M625.9,1108.7 Q1141.7,371.8 1658.3,-365.8" fill="none" stroke="#14161a" stroke-width="1.19" stroke-linecap="round" opacity="0.17"/>
    </g>
    <path d="M92.9,392.4 L99.7,368.3 L108.6,336.9 L116.4,317.0 L138.4,296.3 L156.3,279.9 L179.3,266.4 L200.2,265.6 L228.3,264.3 L247.9,270.8 L276.9,281.2 L293.8,299.5 L311.5,319.5 L323.0,340.3 L332.5,367.3 L332.4,389.2 L337.2,451.0 L395.9,542.9 L41.3,540.8 L90.5,445.0 Z" fill="#14161a" opacity="0.93"/>
    <path d="M30.4,539.7 Q49.4,494.7 72.7,452.4" fill="none" stroke="#14161a" stroke-width="2.88" stroke-linecap="round" opacity="0.66"/>
    <path d="M28.6,538.6 Q54.0,497.0 74.0,451.0" fill="none" stroke="#14161a" stroke-width="2.95" stroke-linecap="round" opacity="0.68"/>
    <path d="M73.0,452.5 Q111.5,434.8 149.0,421.3" fill="none" stroke="#14161a" stroke-width="3.39" stroke-linecap="round" opacity="0.66"/>
    <path d="M73.4,452.8 Q112.1,436.3 149.0,420.4" fill="none" stroke="#14161a" stroke-width="2.54" stroke-linecap="round" opacity="0.51"/>
</svg>